#Comment line ignore any data following # character 
#Hierarchical Translation and Rotation (.htr) file 
[Header]	
#Header keywords are followed by a single value 
FileType HTR		#Single word string
DataType HTRS		#Translation followed by rotation and scale data
FileVersion 1		#integer
NumSegments 84		#integer
NumFrames 2		#integer
DataFrameRate 30		#integer, data frame rate in this file
EulerRotationOrder ZYX
CalibrationUnits mm
RotationUnits Degrees
GlobalAxisofGravity Y
BoneLengthAxis Y
ScaleFactor 1.00
[SegmentNames&Hierarchy]
#CHILD	PARENT
MASTER GLOBAL
root MASTER
chest root
L_mid_tent01 root
R_mid_tent01 root
spine01 root
Bip01_Neck chest
L_humerus chest
R_humerus chest
weapon_bone chest
Bip01_Head Bip01_Neck
eye_left_bone Bip01_Head
eye_right_bone Bip01_Head
L_forearm L_humerus
L_front_hand L_forearm
L_weapon_bone L_forearm
L_front_hand01_01 L_front_hand
L_front_hand02_01 L_front_hand
L_front_hand03_01 L_front_hand
L_front_hand01_02 L_front_hand01_01
L_front_hand02_02 L_front_hand02_01
L_front_hand03_02 L_front_hand03_01
R_forearm R_humerus
R_front_hand R_forearm
R_weapon_bone R_forearm
R_front_hand01_01 R_front_hand
R_front_hand02_01 R_front_hand
R_front_hand03_01 R_front_hand
R_front_hand01_02 R_front_hand01_01
R_front_hand02_02 R_front_hand02_01
R_front_hand03_02 R_front_hand03_01
null_rope01_connect L_mid_tent01
Rope1_Seg01 null_rope01_connect
Rope1_Seg02 Rope1_Seg01
Rope1_Seg03 Rope1_Seg02
Rope1_Seg04 Rope1_Seg03
Rope1_Seg05 Rope1_Seg04
Rope1_Seg06 Rope1_Seg05
Rope1_Seg07 Rope1_Seg06
Rope1_Seg09 Rope1_Seg07
L_mid_hand01 Rope1_Seg09
L_mid_hand02 Rope1_Seg09
L_mid_hand03 Rope1_Seg09
null_rope02_connect R_mid_tent01
Rope2_Seg01 null_rope02_connect
Rope2_Seg02 Rope2_Seg01
Rope2_Seg03 Rope2_Seg02
Rope2_Seg04 Rope2_Seg03
Rope2_Seg05 Rope2_Seg04
Rope2_Seg06 Rope2_Seg05
Rope2_Seg07 Rope2_Seg06
Rope2_Seg09 Rope2_Seg07
R_mid_hand01 Rope2_Seg09
R_mid_hand02 Rope2_Seg09
R_mid_hand03 Rope2_Seg09
spine02 spine01
spine03 spine02
pelvis spine03
null_rope03_connect pelvis
null_rope04_connect pelvis
Rope3_Seg01 null_rope03_connect
Rope3_Seg02 Rope3_Seg01
Rope3_Seg03 Rope3_Seg02
Rope3_Seg04 Rope3_Seg03
Rope3_Seg05 Rope3_Seg04
Rope3_Seg06 Rope3_Seg05
Rope3_Seg07 Rope3_Seg06
Rope3_Seg08 Rope3_Seg07
Rope3_Seg09 Rope3_Seg08
R_rear_hand01 Rope3_Seg09
R_rear_hand02 Rope3_Seg09
R_rear_hand03 Rope3_Seg09
Rope4_Seg01 null_rope04_connect
Rope4_Seg02 Rope4_Seg01
Rope4_Seg03 Rope4_Seg02
Rope4_Seg04 Rope4_Seg03
Rope4_Seg05 Rope4_Seg04
Rope4_Seg06 Rope4_Seg05
Rope4_Seg07 Rope4_Seg06
Rope4_Seg08 Rope4_Seg07
Rope4_Seg09 Rope4_Seg08
L_rear_hand01 Rope4_Seg09
L_rear_hand02 Rope4_Seg09
L_rear_hand03 Rope4_Seg09
[BasePosition]
#SegmentName Tx, Ty, Tz, Rx, Ry, Rz, BoneLength
MASTER 0.000000 0.000000 0.000000 -90.000000 0.000000 0.000000 10.000000 
root 0.000000 0.000000 0.000000 0.000000 0.000000 0.000000 10.000000 
chest 0.000000 0.000000 0.000000 0.000000 0.000000 0.000000 10.000000 
L_mid_tent01 0.000000 0.000000 0.000000 0.000000 0.000000 0.000000 10.000000 
R_mid_tent01 0.000000 0.000000 0.000000 0.000000 0.000000 0.000000 10.000000 
spine01 0.000000 0.000000 0.000000 0.000000 0.000000 0.000000 10.000000 
Bip01_Neck 0.000000 0.000000 0.000000 0.000000 0.000000 0.000000 10.000000 
L_humerus 0.000000 0.000000 0.000000 0.000000 0.000000 0.000000 10.000000 
R_humerus 0.000000 0.000000 0.000000 0.000000 0.000000 0.000000 10.000000 
weapon_bone 0.000000 0.000000 0.000000 0.000000 0.000000 0.000000 10.000000 
Bip01_Head 0.000000 0.000000 0.000000 0.000000 0.000000 0.000000 10.000000 
eye_left_bone 0.000000 0.000000 0.000000 0.000000 0.000000 0.000000 10.000000 
eye_right_bone 0.000000 0.000000 0.000000 0.000000 0.000000 0.000000 10.000000 
L_forearm 0.000000 0.000000 0.000000 0.000000 0.000000 0.000000 10.000000 
L_front_hand 0.000000 0.000000 0.000000 0.000000 0.000000 0.000000 10.000000 
L_weapon_bone 0.000000 0.000000 0.000000 0.000000 0.000000 0.000000 10.000000 
L_front_hand01_01 0.000000 0.000000 0.000000 0.000000 0.000000 0.000000 10.000000 
L_front_hand02_01 0.000000 0.000000 0.000000 0.000000 0.000000 0.000000 10.000000 
L_front_hand03_01 0.000000 0.000000 0.000000 0.000000 0.000000 0.000000 10.000000 
L_front_hand01_02 0.000000 0.000000 0.000000 0.000000 0.000000 0.000000 10.000000 
L_front_hand02_02 0.000000 0.000000 0.000000 0.000000 0.000000 0.000000 10.000000 
L_front_hand03_02 0.000000 0.000000 0.000000 0.000000 0.000000 0.000000 10.000000 
R_forearm 0.000000 0.000000 0.000000 0.000000 0.000000 0.000000 10.000000 
R_front_hand 0.000000 0.000000 0.000000 0.000000 0.000000 0.000000 10.000000 
R_weapon_bone 0.000000 0.000000 0.000000 0.000000 0.000000 0.000000 10.000000 
R_front_hand01_01 0.000000 0.000000 0.000000 0.000000 0.000000 0.000000 10.000000 
R_front_hand02_01 0.000000 0.000000 0.000000 0.000000 0.000000 0.000000 10.000000 
R_front_hand03_01 0.000000 0.000000 0.000000 0.000000 0.000000 0.000000 10.000000 
R_front_hand01_02 0.000000 0.000000 0.000000 0.000000 0.000000 0.000000 10.000000 
R_front_hand02_02 0.000000 0.000000 0.000000 0.000000 0.000000 0.000000 10.000000 
R_front_hand03_02 0.000000 0.000000 0.000000 0.000000 0.000000 0.000000 10.000000 
null_rope01_connect 0.000000 0.000000 0.000000 0.000000 0.000000 0.000000 10.000000 
Rope1_Seg01 0.000000 0.000000 0.000000 0.000000 0.000000 0.000000 10.000000 
Rope1_Seg02 0.000000 0.000000 0.000000 0.000000 0.000000 0.000000 10.000000 
Rope1_Seg03 0.000000 0.000000 0.000000 0.000000 0.000000 0.000000 10.000000 
Rope1_Seg04 0.000000 0.000000 0.000000 0.000000 0.000000 0.000000 10.000000 
Rope1_Seg05 0.000000 0.000000 0.000000 0.000000 0.000000 0.000000 10.000000 
Rope1_Seg06 0.000000 0.000000 0.000000 0.000000 0.000000 0.000000 10.000000 
Rope1_Seg07 0.000000 0.000000 0.000000 0.000000 0.000000 0.000000 10.000000 
Rope1_Seg09 0.000000 0.000000 0.000000 0.000000 0.000000 0.000000 10.000000 
L_mid_hand01 0.000000 0.000000 0.000000 0.000000 0.000000 0.000000 10.000000 
L_mid_hand02 0.000000 0.000000 0.000000 0.000000 0.000000 0.000000 10.000000 
L_mid_hand03 0.000000 0.000000 0.000000 0.000000 0.000000 0.000000 10.000000 
null_rope02_connect 0.000000 0.000000 0.000000 0.000000 0.000000 0.000000 10.000000 
Rope2_Seg01 0.000000 0.000000 0.000000 0.000000 0.000000 0.000000 10.000000 
Rope2_Seg02 0.000000 0.000000 0.000000 0.000000 0.000000 0.000000 10.000000 
Rope2_Seg03 0.000000 0.000000 0.000000 0.000000 0.000000 0.000000 10.000000 
Rope2_Seg04 0.000000 0.000000 0.000000 0.000000 0.000000 0.000000 10.000000 
Rope2_Seg05 0.000000 0.000000 0.000000 0.000000 0.000000 0.000000 10.000000 
Rope2_Seg06 0.000000 0.000000 0.000000 0.000000 0.000000 0.000000 10.000000 
Rope2_Seg07 0.000000 0.000000 0.000000 0.000000 0.000000 0.000000 10.000000 
Rope2_Seg09 0.000000 0.000000 0.000000 0.000000 0.000000 0.000000 10.000000 
R_mid_hand01 0.000000 0.000000 0.000000 0.000000 0.000000 0.000000 10.000000 
R_mid_hand02 0.000000 0.000000 0.000000 0.000000 0.000000 0.000000 10.000000 
R_mid_hand03 0.000000 0.000000 0.000000 0.000000 0.000000 0.000000 10.000000 
spine02 0.000000 0.000000 0.000000 0.000000 0.000000 0.000000 10.000000 
spine03 0.000000 0.000000 0.000000 0.000000 0.000000 0.000000 10.000000 
pelvis 0.000000 0.000000 0.000000 0.000000 0.000000 0.000000 10.000000 
null_rope03_connect 0.000000 0.000000 0.000000 0.000000 0.000000 0.000000 10.000000 
null_rope04_connect 0.000000 0.000000 0.000000 0.000000 0.000000 0.000000 10.000000 
Rope3_Seg01 0.000000 0.000000 0.000000 0.000000 0.000000 0.000000 10.000000 
Rope3_Seg02 0.000000 0.000000 0.000000 0.000000 0.000000 0.000000 10.000000 
Rope3_Seg03 0.000000 0.000000 0.000000 0.000000 0.000000 0.000000 10.000000 
Rope3_Seg04 0.000000 0.000000 0.000000 0.000000 0.000000 0.000000 10.000000 
Rope3_Seg05 0.000000 0.000000 0.000000 0.000000 0.000000 0.000000 10.000000 
Rope3_Seg06 0.000000 0.000000 0.000000 0.000000 0.000000 0.000000 10.000000 
Rope3_Seg07 0.000000 0.000000 0.000000 0.000000 0.000000 0.000000 10.000000 
Rope3_Seg08 0.000000 0.000000 0.000000 0.000000 0.000000 0.000000 10.000000 
Rope3_Seg09 0.000000 0.000000 0.000000 0.000000 0.000000 0.000000 10.000000 
R_rear_hand01 0.000000 0.000000 0.000000 0.000000 0.000000 0.000000 10.000000 
R_rear_hand02 0.000000 0.000000 0.000000 0.000000 0.000000 0.000000 10.000000 
R_rear_hand03 0.000000 0.000000 0.000000 0.000000 0.000000 0.000000 10.000000 
Rope4_Seg01 0.000000 0.000000 0.000000 0.000000 0.000000 0.000000 10.000000 
Rope4_Seg02 0.000000 0.000000 0.000000 0.000000 0.000000 0.000000 10.000000 
Rope4_Seg03 0.000000 0.000000 0.000000 0.000000 0.000000 0.000000 10.000000 
Rope4_Seg04 0.000000 0.000000 0.000000 0.000000 0.000000 0.000000 10.000000 
Rope4_Seg05 0.000000 0.000000 0.000000 0.000000 0.000000 0.000000 10.000000 
Rope4_Seg06 0.000000 0.000000 0.000000 0.000000 0.000000 0.000000 10.000000 
Rope4_Seg07 0.000000 0.000000 0.000000 0.000000 0.000000 0.000000 10.000000 
Rope4_Seg08 0.000000 0.000000 0.000000 0.000000 0.000000 0.000000 10.000000 
Rope4_Seg09 0.000000 0.000000 0.000000 0.000000 0.000000 0.000000 10.000000 
L_rear_hand01 0.000000 0.000000 0.000000 0.000000 0.000000 0.000000 10.000000 
L_rear_hand02 0.000000 0.000000 0.000000 0.000000 0.000000 0.000000 10.000000 
L_rear_hand03 0.000000 0.000000 0.000000 0.000000 0.000000 0.000000 10.000000 
#Beginning of Data. Separated by tabs
#Fr	Tx	Ty	Tz	Rx	Ry	Rz	SF
[MASTER]
6 0.000238 -2195.343750 -262.517487 0.001660 0.001660 0.001660 2210.983887
7 0.000284 -2628.706543 -312.498596 0.001660 0.001660 0.001660 2647.216064
[root]
6 -28.966682 -29.090591 1479.977295 -80.167442 -14.519948 -103.459427 1480.546509
7 -32.339390 -37.258316 1488.543335 -79.242523 -16.383017 -104.580093 1489.360718
[chest]
6 -84.512650 -34.090519 0.000000 21.021208 5.651964 150.271667 91.129311
7 -84.512650 -34.090519 0.000000 24.075727 5.916741 148.037811 91.129311
[L_mid_tent01]
6 27.299129 22.179106 -249.918732 3.785915 12.874254 81.452225 252.381714
7 27.299133 22.179106 -249.918732 2.840367 16.952505 80.395065 252.381714
[R_mid_tent01]
6 23.228794 24.509907 226.238495 163.016022 -1.572915 78.880936 228.744751
7 23.228794 24.509907 226.238495 163.240372 1.287072 77.981262 228.744751
[spine01]
6 -0.361383 -0.195265 0.000000 0.002061 0.001123 32.843739 0.410763
7 -0.361383 -0.195265 0.000000 0.002060 0.001125 32.735474 0.410763
[Bip01_Neck]
6 165.484543 71.581718 0.000119 176.643677 -1.657967 43.431915 180.302734
7 165.484543 71.581718 0.000119 176.643677 -1.657967 43.431911 180.302734
[L_humerus]
6 -13.983130 -135.272980 -120.471481 -174.544113 66.754593 -61.294468 181.680161
7 -13.983130 -135.272980 -120.471481 177.732285 55.605412 -63.753384 181.680161
[R_humerus]
6 -13.983309 -135.273102 125.287651 167.620529 -61.891022 -70.503403 184.909012
7 -13.983309 -135.273102 125.287651 173.861130 -50.341358 -76.489807 184.909012
[weapon_bone]
6 235.964890 -300.705902 0.000000 0.000000 -89.951546 -128.212341 382.234833
7 235.964890 -300.705902 0.000000 0.000000 -89.951546 -128.212341 382.234833
[Bip01_Head]
6 213.611282 185.250305 17.781986 24.278551 5.234002 -43.866722 283.308411
7 213.673691 185.076370 20.027311 31.273613 2.797636 -43.902233 283.391602
[eye_left_bone]
6 -24.626970 125.451866 -64.772606 0.000000 -90.000000 -99.840431 143.318359
7 -24.626970 125.451866 -64.772606 0.000000 -90.000000 -99.840431 143.318359
[eye_right_bone]
6 -24.626970 125.451866 64.327362 0.000000 -89.965736 80.156380 143.117676
7 -24.626970 125.451866 64.327362 0.000000 -89.980217 80.156380 143.117676
[L_forearm]
6 322.776093 0.000000 -0.000119 0.000313 -0.002326 -105.332130 322.776093
7 322.776093 0.000000 -0.000119 0.000281 -0.002330 -103.731201 322.776093
[L_front_hand]
6 241.149185 -0.042021 -3.300071 152.288803 -1.836866 -27.421387 241.171753
7 241.149185 -0.042021 -3.300071 -141.518814 -1.837247 -27.424150 241.171753
[L_weapon_bone]
6 156.183838 0.000000 0.000000 0.000014 0.000007 0.000001 156.183838
7 156.183838 0.000000 0.000000 0.000014 0.000007 0.000001 156.183838
[L_front_hand01_01]
6 86.095154 20.947098 -0.655860 -0.366594 -0.477154 75.385574 88.609184
7 86.095154 20.947098 -0.655860 -0.366594 -0.477154 75.385574 88.609184
[L_front_hand02_01]
6 86.935165 -11.437475 24.513514 154.399796 -59.883835 -61.369587 91.046425
7 86.935165 -11.437475 24.513514 154.399796 -59.883835 -61.369587 91.046425
[L_front_hand03_01]
6 86.637497 -14.123976 -20.424902 -153.913849 58.118122 -62.702866 90.126129
7 86.637497 -14.123976 -20.424902 -153.913849 58.118122 -62.702866 90.126129
[L_front_hand01_02]
6 71.020905 -0.000179 0.000030 0.000665 0.002271 -57.379360 71.020905
7 71.020905 -0.000179 0.000030 0.000938 0.002152 -42.876839 71.020905
[L_front_hand02_02]
6 71.020927 -0.000119 0.000060 0.000665 0.002271 -57.379360 71.020927
7 71.020927 -0.000119 0.000060 0.000938 0.002152 -42.876839 71.020927
[L_front_hand03_02]
6 71.020905 -0.000060 0.000060 0.000665 0.002271 -57.379360 71.020905
7 71.020905 -0.000060 0.000060 0.000938 0.002152 -42.876839 71.020905
[R_forearm]
6 322.776428 -0.000060 0.000030 0.209312 0.046740 -103.327988 322.776428
7 322.776428 -0.000060 0.000030 0.206862 0.039774 -101.615425 322.776428
[R_front_hand]
6 238.847015 -0.006795 2.210259 15.909316 -10.646338 -26.312191 238.857239
7 238.847015 -0.006795 2.210259 -52.382240 -10.643869 -26.312872 238.857239
[R_weapon_bone]
6 155.664093 0.002503 -0.000030 0.003487 0.001180 -90.988930 155.664078
7 155.664093 0.002503 -0.000030 0.003487 0.001180 -90.988930 155.664078
[R_front_hand01_01]
6 87.624611 14.231146 22.918642 -154.633499 -59.950619 61.746044 91.683487
7 87.624611 14.231146 22.918642 -154.633499 -59.950619 61.746044 91.683487
[R_front_hand02_01]
6 89.356956 14.367283 -19.491137 154.602661 58.302849 63.744389 92.579636
7 89.356956 14.367283 -19.491137 154.602661 58.302849 63.744389 92.579636
[R_front_hand03_01]
6 87.286232 -22.307278 -0.143439 0.162155 -0.423168 -75.767921 90.091743
7 87.286232 -22.307278 -0.143439 0.162155 -0.423168 -75.767921 90.091743
[R_front_hand01_02]
6 71.020905 0.000060 0.000119 0.002271 0.000664 57.380562 71.020905
7 71.020905 0.000060 0.000119 0.002152 0.000938 42.875092 71.020905
[R_front_hand02_02]
6 71.020844 -0.000030 -0.000119 0.002271 0.000664 57.380562 71.020836
7 71.020844 -0.000030 -0.000119 0.002152 0.000938 42.875092 71.020836
[R_front_hand03_02]
6 71.020905 0.000000 0.000030 0.002271 0.000664 57.380562 71.020905
7 71.020905 0.000000 0.000030 0.002152 0.000938 42.875092 71.020905
[null_rope01_connect]
6 328.732483 0.000000 -0.000238 -92.560921 -70.466927 115.467682 328.732483
7 328.732483 0.000000 -0.000238 -99.961845 -68.187347 125.364296 328.732483
[Rope1_Seg01]
6 -0.000007 -0.000031 0.000153 104.853302 57.585987 125.090515 0.000156
7 -0.000008 -0.000030 0.000153 50.449348 70.469177 62.329849 0.000156
[Rope1_Seg02]
6 139.999863 -0.000179 0.000000 0.591726 7.149655 22.415472 139.999863
7 139.999863 -0.000179 0.000000 3.416966 6.046387 29.988182 139.999863
[Rope1_Seg03]
6 139.999924 0.000060 -0.000060 3.804276 6.844489 19.052183 139.999924
7 139.999924 0.000060 -0.000060 10.245715 7.628120 25.809433 139.999924
[Rope1_Seg04]
6 139.999924 -0.000060 -0.000119 1.451534 1.684321 5.966552 139.999924
7 139.999924 -0.000060 -0.000119 1.848429 0.111566 5.154340 139.999924
[Rope1_Seg05]
6 139.999832 0.000119 -0.000060 -1.755552 -4.853227 -4.950516 139.999832
7 139.999832 0.000119 -0.000060 -4.593292 -7.352978 -4.540322 139.999832
[Rope1_Seg06]
6 139.999954 0.000119 -0.000060 -1.739851 -4.892028 -5.520592 139.999954
7 139.999954 0.000119 -0.000060 -2.595428 -4.199184 -1.937838 139.999954
[Rope1_Seg07]
6 139.999985 0.000060 0.000000 -0.936351 -2.791399 -2.731442 139.999985
7 139.999985 0.000060 0.000000 -1.771700 -2.855044 -1.107038 139.999985
[Rope1_Seg09]
6 121.602913 0.000119 -0.000089 -89.793175 -1.359789 0.847147 121.602913
7 121.602913 0.000119 -0.000089 -89.793175 -1.359789 0.847147 121.602913
[L_mid_hand01]
6 103.859421 1.038730 8.195221 112.493240 -49.600185 -18.031643 104.187431
7 103.859421 1.038730 8.195221 110.549706 -45.072769 -15.392938 104.187431
[L_mid_hand02]
6 105.572853 -4.139662 -10.864139 -152.303986 36.371010 -47.886745 106.211075
7 105.572853 -4.139662 -10.864139 -149.303925 33.991982 -42.687023 106.211075
[L_mid_hand03]
6 104.641464 17.579376 -3.913581 -12.027911 14.512395 53.523804 106.179977
7 104.641464 17.579376 -3.913581 -13.209494 13.449577 48.630802 106.179977
[null_rope02_connect]
6 328.732849 0.000179 -0.000119 -122.805298 84.085930 29.473314 328.732849
7 328.732849 0.000179 -0.000119 -110.673309 87.289856 39.467999 328.732849
[Rope2_Seg01]
6 0.000095 0.000203 0.000000 -45.719078 10.345924 55.634533 0.000224
7 0.000095 0.000221 0.000000 -41.952759 17.881077 65.458229 0.000240
[Rope2_Seg02]
6 139.999741 -0.000060 -0.000119 -0.351894 8.543593 -4.797020 139.999756
7 139.999741 -0.000060 -0.000119 0.090553 3.603415 -0.792138 139.999756
[Rope2_Seg03]
6 140.000107 0.000030 0.000000 -0.065540 6.381374 -3.871299 140.000107
7 140.000107 0.000030 0.000000 0.050615 3.766418 -0.768612 140.000107
[Rope2_Seg04]
6 139.999802 0.000000 -0.000060 0.353853 6.556776 -5.275578 139.999802
7 139.999802 0.000000 -0.000060 -0.031579 5.453778 -0.905921 139.999802
[Rope2_Seg05]
6 139.999985 -0.000060 0.000119 -0.192111 1.741972 -0.382123 139.999985
7 139.999985 -0.000060 0.000119 -0.016641 -0.962790 -0.176248 139.999985
[Rope2_Seg06]
6 139.999893 -0.000030 -0.000119 -1.337772 -2.104429 4.464668 139.999893
7 139.999893 -0.000030 -0.000119 -0.182204 -7.738533 0.519575 139.999893
[Rope2_Seg07]
6 139.999893 0.000060 -0.000060 -2.110815 -5.885466 9.556437 139.999893
7 139.999893 0.000060 -0.000060 -0.401870 -6.063500 0.325038 139.999893
[Rope2_Seg09]
6 121.338966 0.000089 -0.000060 33.793236 -1.359788 -0.847141 121.338966
7 121.338966 0.000089 -0.000060 33.793236 -1.359788 -0.847141 121.338966
[R_mid_hand01]
6 104.680779 11.144459 -10.335981 -25.740593 41.350704 56.606117 105.778534
7 104.680779 11.144459 -10.335981 -28.447905 39.731525 52.443081 105.778534
[R_mid_hand02]
6 104.070427 2.443552 8.231699 61.371151 -58.827457 25.571609 104.424065
7 104.070427 2.443552 8.231699 63.907375 -55.672985 22.555897 104.424065
[R_mid_hand03]
6 106.028137 -11.221827 -5.996406 -174.179749 14.727765 -65.439743 106.788818
7 106.028137 -11.221827 -5.996406 -173.262527 14.339040 -61.789936 106.788818
[spine02]
6 129.756927 0.001550 0.000119 0.499638 -4.028884 -14.924088 129.756927
7 129.756927 0.001550 0.000119 0.511586 -4.027356 -15.124165 129.756927
[spine03]
6 78.613922 0.081536 -4.899016 1.979994 3.788827 17.726196 78.766457
7 78.613892 0.081547 -4.899018 1.988864 3.785980 17.846659 78.766426
[pelvis]
6 169.435242 0.051022 0.000000 -0.069330 -0.178129 16.623135 169.435257
7 169.435242 0.051022 0.000000 -0.069719 -0.177977 16.873075 169.435257
[null_rope03_connect]
6 -1.257226 -2.466202 137.391083 -45.136139 -74.610092 98.632011 137.418976
7 -1.257226 -2.466202 137.391083 -44.239994 -73.694801 99.735672 137.418976
[null_rope04_connect]
6 -1.259640 -2.480268 -137.844437 -45.136139 -74.610092 98.632011 137.872513
7 -1.259640 -2.480268 -137.844437 -44.239994 -73.694801 99.735672 137.872513
[Rope3_Seg01]
6 -0.000019 0.000078 -0.000125 1.721718 -3.106905 35.370304 0.000149
7 -0.000019 0.000101 -0.000120 -1.440542 1.363335 39.083565 0.000158
[Rope3_Seg02]
6 139.999924 -0.000119 0.000060 21.655317 -10.703343 -2.395023 139.999924
7 139.999924 -0.000119 0.000060 16.271280 -9.658439 2.172823 139.999924
[Rope3_Seg03]
6 139.999924 -0.000119 0.000119 19.831070 -7.083483 0.094891 139.999924
7 139.999924 -0.000119 0.000119 13.427545 -7.108464 2.606982 139.999924
[Rope3_Seg04]
6 139.999924 0.000119 0.000000 21.200190 -6.642243 -1.086491 139.999924
7 139.999924 0.000119 0.000000 11.549955 -6.057662 1.832763 139.999924
[Rope3_Seg05]
6 139.999924 -0.000238 0.000060 6.767805 -0.052653 3.432420 139.999924
7 139.999924 -0.000238 0.000060 5.788131 0.647079 7.740658 139.999924
[Rope3_Seg06]
6 139.999893 -0.000119 -0.000060 -3.731846 5.727762 5.247070 139.999893
7 139.999893 -0.000119 -0.000060 1.299014 4.029791 7.129023 139.999893
[Rope3_Seg07]
6 139.999771 0.000060 -0.000119 -3.644598 8.318540 7.044437 139.999771
7 139.999771 0.000060 -0.000119 1.148492 1.780407 3.734995 139.999771
[Rope3_Seg08]
6 139.999985 -0.000060 0.000000 -0.061814 3.557834 4.171885 139.999985
7 139.999985 -0.000060 0.000000 0.961521 0.840220 2.051510 139.999985
[Rope3_Seg09]
6 90.185997 -0.000179 -0.000060 89.793228 -1.359877 -0.847183 90.185997
7 90.185997 -0.000179 -0.000060 89.793228 -1.359877 -0.847183 90.185997
[R_rear_hand01]
6 103.366196 -6.073594 -10.757982 -171.684540 23.302565 -59.125771 104.101845
7 103.366196 -6.073594 -10.757982 -169.896027 22.621883 -54.548435 104.101845
[R_rear_hand02]
6 100.509819 12.039542 -7.992327 -21.930750 32.777496 56.381863 101.543350
7 100.509819 12.039542 -7.992327 -24.381296 31.099253 51.752319 101.543350
[R_rear_hand03]
6 101.539970 5.215704 5.435467 79.009171 -58.663548 13.282337 101.819031
7 101.539970 5.215704 5.435467 80.187744 -54.464619 11.876318 101.819031
[Rope4_Seg01]
6 0.000010 0.000038 -0.000114 -109.174500 -54.128616 82.759987 0.000121
7 0.000010 0.000038 -0.000114 -120.802864 -46.769928 101.559486 0.000121
[Rope4_Seg02]
6 139.999985 0.000060 0.000119 10.653701 -35.011406 -3.486989 139.999985
7 139.999985 0.000060 0.000119 7.314836 -15.258445 5.453770 139.999985
[Rope4_Seg03]
6 139.999924 0.000000 -0.000238 32.639015 -27.746571 1.552120 139.999924
7 139.999924 0.000000 -0.000238 16.011351 -18.527290 9.151418 139.999924
[Rope4_Seg04]
6 139.999985 0.000000 0.000119 33.083370 -9.660307 7.081930 139.999985
7 139.999985 0.000000 0.000119 17.100258 -10.459690 10.251858 139.999985
[Rope4_Seg05]
6 139.999802 -0.000060 -0.000119 -13.839658 2.572084 -4.083522 139.999802
7 139.999802 -0.000060 -0.000119 -14.328732 7.407702 -9.439819 139.999802
[Rope4_Seg06]
6 139.999924 0.000000 0.000060 -32.157124 10.356133 -12.093022 139.999924
7 139.999924 0.000000 0.000060 -8.985303 7.356287 -6.181791 139.999924
[Rope4_Seg07]
6 139.999802 0.000000 0.000000 -12.490227 12.982228 -4.224168 139.999802
7 139.999802 0.000000 0.000000 -1.992652 2.525656 -1.368267 139.999802
[Rope4_Seg08]
6 139.999924 0.000000 0.000119 -4.495701 5.830750 -0.480160 139.999924
7 139.999924 0.000000 0.000119 -2.625368 1.532598 -0.765687 139.999924
[Rope4_Seg09]
6 90.185791 0.000060 0.000060 -135.617828 2.228885 0.850567 90.185791
7 90.185791 0.000060 0.000060 -135.617828 2.228885 0.850567 90.185791
[L_rear_hand01]
6 101.696655 -8.392275 -7.654577 -30.719053 -24.879360 141.681381 102.329041
7 101.696655 -8.392275 -7.654577 -31.684452 -23.583008 144.025742 102.329041
[L_rear_hand02]
6 102.726799 -1.568258 5.773216 82.428497 41.230476 171.131027 102.900848
7 102.726799 -1.568258 5.773216 82.701553 38.753956 171.553619 102.900848
[L_rear_hand03]
6 104.552910 9.721220 -10.420293 -164.822937 -19.676035 -139.457687 105.519653
7 104.552910 9.721220 -10.420293 -163.975403 -19.004421 -142.009338 105.519653
